<svg width="16" height="17" viewBox="0 0 16 17" fill="none" xmlns="http://www.w3.org/2000/svg">
<g id="icon/image">
<path id="Vector" d="M12.6667 2.32227H3.33333C2.59695 2.32227 2 2.91922 2 3.6556V12.9889C2 13.7253 2.59695 14.3223 3.33333 14.3223H12.6667C13.403 14.3223 14 13.7253 14 12.9889V3.6556C14 2.91922 13.403 2.32227 12.6667 2.32227Z" stroke="black" stroke-width="1.3" stroke-linecap="round" stroke-linejoin="round"/>
<path id="Vector_2" d="M6.00033 7.65544C6.73671 7.65544 7.33366 7.05848 7.33366 6.3221C7.33366 5.58572 6.73671 4.98877 6.00033 4.98877C5.26395 4.98877 4.66699 5.58572 4.66699 6.3221C4.66699 7.05848 5.26395 7.65544 6.00033 7.65544Z" stroke="black" stroke-width="1.3" stroke-linecap="round" stroke-linejoin="round"/>
<path id="Vector_3" d="M14 10.3222L11.9427 8.26489C11.6926 8.01493 11.3536 7.87451 11 7.87451C10.6464 7.87451 10.3074 8.01493 10.0573 8.26489L4 14.3222" stroke="black" stroke-width="1.3" stroke-linecap="round" stroke-linejoin="round"/>
</g>
</svg>
