<svg xmlns="http://www.w3.org/2000/svg" width="16" height="17" viewBox="0 0 16 17" fill="none">
  <path d="M11.333 2.27348C11.5081 2.09838 11.716 1.95949 11.9447 1.86473C12.1735 1.76996 12.4187 1.72119 12.6663 1.72119C12.914 1.72119 13.1592 1.76996 13.3879 1.86473C13.6167 1.95949 13.8246 2.09838 13.9997 2.27348C14.1748 2.44857 14.3137 2.65644 14.4084 2.88521C14.5032 3.11399 14.552 3.35919 14.552 3.60681C14.552 3.85443 14.5032 4.09963 14.4084 4.3284C14.3137 4.55718 14.1748 4.76505 13.9997 4.94014L4.99967 13.9401L1.33301 14.9401L2.33301 11.2735L11.333 2.27348Z" stroke="#334155" stroke-width="1.33" stroke-linecap="round" stroke-linejoin="round"/>
</svg>
